<svg width="292" height="292" viewBox="0 0 292 292" fill="none" xmlns="http://www.w3.org/2000/svg">
<path d="M292 146C292 226.634 226.634 292 146 292C65.3664 292 0 226.634 0 146C0 65.3664 65.3664 0 146 0C226.634 0 292 65.3664 292 146ZM8.75999 146C8.75999 221.796 70.2044 283.24 146 283.24C221.796 283.24 283.24 221.796 283.24 146C283.24 70.2044 221.796 8.75999 146 8.75999C70.2044 8.75999 8.75999 70.2044 8.75999 146Z" fill="white"/>
<path d="M148.75 215.25C137.917 215.25 128.167 213.333 119.5 209.5C111 205.5 104.25 200.167 99.25 193.5C94.25 186.667 91.5833 179.083 91.25 170.75H120.75C121.25 176.583 124 181.5 129 185.5C134.167 189.333 140.583 191.25 148.25 191.25C156.25 191.25 162.417 189.75 166.75 186.75C171.25 183.583 173.5 179.583 173.5 174.75C173.5 169.583 171 165.75 166 163.25C161.167 160.75 153.417 158 142.75 155C132.417 152.167 124 149.417 117.5 146.75C111 144.083 105.333 140 100.5 134.5C95.8333 129 93.5 121.75 93.5 112.75C93.5 105.417 95.6667 98.75 100 92.75C104.333 86.5833 110.5 81.75 118.5 78.25C126.667 74.75 136 73 146.5 73C162.167 73 174.75 77 184.25 85C193.917 92.8333 199.083 103.583 199.75 117.25H171.25C170.75 111.083 168.25 106.167 163.75 102.5C159.25 98.8333 153.167 97 145.5 97C138 97 132.25 98.4167 128.25 101.25C124.25 104.083 122.25 107.833 122.25 112.5C122.25 116.167 123.583 119.25 126.25 121.75C128.917 124.25 132.167 126.25 136 127.75C139.833 129.083 145.5 130.833 153 133C163 135.667 171.167 138.417 177.5 141.25C184 143.917 189.583 147.917 194.25 153.25C198.917 158.583 201.333 165.667 201.5 174.5C201.5 182.333 199.333 189.333 195 195.5C190.667 201.667 184.5 206.5 176.5 210C168.667 213.5 159.417 215.25 148.75 215.25Z" fill="white"/>
<path d="M71.687 236.47L79.9619 225.301L81.7939 226.659L76.1265 234.308L85.2007 229.183L86.4702 230.124L84.2256 240.309L89.8931 232.66L91.725 234.017L83.4501 245.185L81.4735 243.721L84.0414 232.058L73.6475 237.923L71.687 236.47Z" fill="white"/>
<path d="M61.0966 223.674L64.1679 220.988L61.0083 217.375L62.4084 216.151L65.5681 219.764L68.775 216.96L65.2204 212.895L66.6205 211.67L71.676 217.452L61.1972 226.615L56.1417 220.833L57.5419 219.609L61.0966 223.674Z" fill="white"/>
<path d="M56.6133 197.083L53.4417 202.659L54.3234 204.159L59.1167 201.342L60.272 203.307L48.2889 210.351L45.8565 206.213C45.316 205.293 45.0208 204.423 44.9711 203.602C44.9146 202.769 45.0652 202.038 45.423 201.41C45.7741 200.771 46.283 200.255 46.9497 199.863C47.7313 199.404 48.5791 199.215 49.4931 199.296C50.3888 199.373 51.2286 199.815 52.0125 200.623L55.235 194.738L56.6133 197.083ZM52.7544 205.082L51.4774 202.909C51.045 202.173 50.5367 201.73 49.9527 201.578C49.3619 201.415 48.7561 201.516 48.1354 201.881C47.5147 202.246 47.1401 202.713 47.0114 203.284C46.8713 203.861 47.0208 204.523 47.46 205.27L48.737 207.443L52.7544 205.082Z" fill="white"/>
<path d="M47.0065 174.451L47.7286 176.613L40.0559 186.408L49.9014 183.12L50.6236 185.283L37.4203 189.692L36.6981 187.529L44.3519 177.741L34.5253 181.022L33.8032 178.86L47.0065 174.451Z" fill="white"/>
<path d="M29.2128 146.241C29.2407 144.761 29.5518 143.473 30.146 142.378C30.727 141.268 31.5565 140.424 32.6343 139.844C33.6991 139.251 34.938 138.968 36.3511 138.994C37.7641 139.021 38.9848 139.351 40.013 139.984C41.0415 140.603 41.8251 141.478 42.3638 142.609C42.8894 143.726 43.1383 145.024 43.1103 146.504L43.0244 151.043L29.1269 150.78L29.2128 146.241ZM41.2506 146.468C41.2814 144.842 40.865 143.587 40.0016 142.704C39.1381 141.821 37.9065 141.364 36.3068 141.334C34.6938 141.303 33.4258 141.713 32.5029 142.562C31.58 143.412 31.1032 144.649 31.0724 146.276L31.0297 148.535L41.2079 148.728L41.2506 146.468Z" fill="white"/>
<path d="M41.1532 117.281C41.5558 117.375 41.9134 117.485 42.2261 117.612L40.3227 125.815C41.195 125.949 41.9572 125.79 42.6093 125.339C43.2615 124.888 43.684 124.247 43.8769 123.416C44.1542 122.221 43.8501 121.261 42.9645 120.535L43.5206 118.139C44.4324 118.693 45.107 119.472 45.5445 120.477C45.972 121.466 46.0396 122.59 45.7472 123.85C45.5091 124.876 45.0678 125.745 44.4233 126.458C43.7689 127.155 42.9718 127.641 42.032 127.915C41.0823 128.174 40.0554 128.175 38.9515 127.919C37.8475 127.663 36.9311 127.217 36.2023 126.583C35.4636 125.932 34.9604 125.152 34.6926 124.241C34.4279 123.317 34.4177 122.329 34.6618 121.277C34.8969 120.264 35.3272 119.413 35.9526 118.723C36.5781 118.033 37.3447 117.561 38.2525 117.306C39.1472 117.049 40.1141 117.04 41.1532 117.281ZM39.9138 119.437C39.0925 119.26 38.3688 119.4 37.7426 119.857C37.1165 120.314 36.7054 120.965 36.5095 121.809C36.3317 122.575 36.4262 123.288 36.7932 123.948C37.1472 124.605 37.7277 125.082 38.5348 125.379L39.9138 119.437Z" fill="white"/>
<path d="M49.8711 104.054L42.948 97.5387L43.9362 95.3297L52.2805 103.664L51.1698 106.146L39.4035 105.462L40.3999 103.235L49.8711 104.054Z" fill="white"/>
<path d="M59.6833 79.9204C60.0213 80.1583 60.3113 80.395 60.5532 80.6305L55.7072 87.5162C56.4652 87.9681 57.2311 88.1077 58.0049 87.9349C58.7787 87.7621 59.4112 87.3267 59.9023 86.6289C60.6083 85.6257 60.6873 84.6216 60.1393 83.6163L61.5551 81.6046C62.1919 82.4604 62.5243 83.4361 62.5521 84.5318C62.5767 85.6089 62.2168 86.6762 61.4724 87.7339C60.8662 88.5953 60.1306 89.2352 59.2655 89.6535C58.3972 90.0533 57.476 90.2039 56.5019 90.1053C55.5246 89.9882 54.5725 89.6035 53.6457 88.9512C52.7189 88.2989 52.037 87.5419 51.6 86.68C51.1599 85.7996 50.9869 84.8871 51.081 83.9425C51.1828 82.987 51.5445 82.0676 52.1661 81.1844C52.7646 80.3339 53.4833 79.7065 54.3221 79.3023C55.161 78.8981 56.0488 78.7485 56.9858 78.8535C57.9118 78.9509 58.811 79.3065 59.6833 79.9204ZM57.7247 81.4524C57.0301 80.9798 56.3068 80.8377 55.5548 81.0258C54.8028 81.214 54.1775 81.6624 53.6787 82.3712C53.2259 83.0145 53.0456 83.7109 53.1376 84.4605C53.2188 85.2024 53.5776 85.8625 54.214 86.4409L57.7247 81.4524Z" fill="white"/>
<path d="M62.1154 63.5119L72.7112 73.8448L71.1194 75.4771L60.5236 65.1442L62.1154 63.5119Z" fill="white"/>
<path d="M84.101 64.0711C83.2658 64.6908 82.3719 65.0636 81.4192 65.1893C80.4586 65.3044 79.5313 65.1623 78.6373 64.763C77.7354 64.3531 76.9468 63.693 76.2715 62.7829C75.6041 61.8834 75.2103 60.9387 75.09 59.9488C74.9698 58.9588 75.1133 58.0222 75.5205 57.1389C75.9277 56.2557 76.5542 55.5002 77.4001 54.8725C78.246 54.2449 79.1507 53.8642 80.114 53.7305C81.0774 53.5968 82.0154 53.7309 82.928 54.1329C83.8406 54.535 84.6306 55.1857 85.298 56.0851C85.9654 56.9846 86.3539 57.9332 86.4634 58.9312C86.573 59.9291 86.4174 60.8829 85.9967 61.7928C85.5788 62.684 84.9469 63.4434 84.101 64.0711ZM82.9211 62.481C83.3923 62.1314 83.7479 61.6932 83.9879 61.1665C84.2386 60.6318 84.3257 60.0442 84.249 59.4038C84.1722 58.7634 83.8955 58.122 83.4188 57.4795C82.9421 56.837 82.4178 56.3877 81.8457 56.1314C81.2658 55.8644 80.6889 55.7695 80.1152 55.8465C79.5414 55.9236 79.019 56.1369 78.5479 56.4865C78.0767 56.8361 77.7211 57.2742 77.4811 57.801C77.2518 58.3198 77.1862 58.8915 77.2843 59.516C77.3745 60.1298 77.6579 60.758 78.1346 61.4004C78.8417 62.3534 79.6309 62.9134 80.502 63.0806C81.3759 63.2291 82.1823 63.0292 82.9211 62.481Z" fill="white"/>
<path d="M95.1631 45.8078C95.3004 45.1854 95.5984 44.5766 96.057 43.9814C96.5157 43.3862 97.1259 42.9117 97.8878 42.5579C98.7585 42.1536 99.6517 42.0034 100.567 42.1074C101.489 42.1938 102.336 42.5284 103.106 43.1114C103.877 43.6944 104.495 44.4878 104.961 45.4915C105.427 46.4953 105.64 47.4917 105.6 48.4807C105.554 49.4577 105.272 50.3384 104.754 51.1228C104.243 51.8895 103.552 52.475 102.681 52.8793C101.919 53.2331 101.172 53.3964 100.439 53.3693C99.7001 53.33 99.0366 53.1677 98.4483 52.8822L101.329 59.0859L99.2613 60.0462L92.4129 45.2988L94.4808 44.3385L95.1631 45.8078ZM102.857 46.4687C102.537 45.7794 102.117 45.2542 101.596 44.8932C101.082 44.5144 100.531 44.3076 99.941 44.2727C99.3579 44.22 98.8003 44.3172 98.2682 44.5643C97.7482 44.8058 97.3142 45.1691 96.9661 45.6541C96.6301 46.1336 96.4349 46.6946 96.3806 47.3373C96.3383 47.9744 96.4772 48.6376 96.7973 49.3269C97.1174 50.0162 97.5373 50.5563 98.0569 50.9471C98.583 51.3202 99.1376 51.5331 99.7206 51.5858C100.316 51.6328 100.873 51.5356 101.393 51.2941C101.925 51.047 102.36 50.6837 102.696 50.2043C103.038 49.7071 103.228 49.134 103.264 48.4848C103.313 47.83 103.177 47.158 102.857 46.4687Z" fill="white"/>
<path d="M125.485 39.1635C125.579 39.5658 125.639 39.9353 125.663 40.272L117.467 42.2008C117.734 43.0422 118.214 43.6552 118.907 44.04C119.6 44.4247 120.362 44.5194 121.193 44.3239C122.387 44.0429 123.113 43.3447 123.371 42.2292L125.765 41.6657C125.673 42.7284 125.273 43.6786 124.567 44.5161C123.87 45.3377 122.892 45.8966 121.633 46.1928C120.607 46.4341 119.632 46.4239 118.708 46.162C117.793 45.8842 117.004 45.3849 116.342 44.6642C115.689 43.9275 115.233 43.0075 114.973 41.9043C114.713 40.8011 114.707 39.7823 114.952 38.8478C115.208 37.8973 115.685 37.1002 116.383 36.4566C117.093 35.8099 117.974 35.3629 119.026 35.1155C120.038 34.8772 120.992 34.8856 121.888 35.1405C122.783 35.3955 123.546 35.8734 124.177 36.5742C124.804 37.2621 125.24 38.1252 125.485 39.1635ZM123.003 39.0078C122.798 38.1932 122.351 37.6065 121.664 37.2477C120.977 36.8889 120.212 36.8088 119.368 37.0073C118.602 37.1875 118.005 37.5884 117.576 38.2098C117.144 38.8183 116.974 39.5501 117.065 40.4052L123.003 39.0078Z" fill="white"/>
<path d="M138.706 33.8694C139.004 33.2903 139.417 32.8311 139.945 32.4919C140.484 32.1386 141.133 31.939 141.892 31.893L142.035 34.2487L141.456 34.2838C140.564 34.3378 139.899 34.6052 139.461 35.086C139.036 35.5659 138.857 36.3648 138.925 37.4828L139.276 43.2721L137 43.4101L136.333 32.4103L138.609 32.2723L138.706 33.8694Z" fill="white"/>
<path d="M152.619 43.3811C152.207 43.3538 151.87 43.1912 151.609 42.8933C151.349 42.5955 151.232 42.2403 151.259 41.8279C151.286 41.4155 151.449 41.0788 151.747 40.8179C152.045 40.557 152.4 40.4401 152.812 40.4674C153.211 40.4938 153.541 40.656 153.802 40.9538C154.063 41.2517 154.18 41.6068 154.153 42.0193C154.125 42.4317 153.963 42.7684 153.665 43.0293C153.367 43.2902 153.019 43.4075 152.619 43.3811Z" fill="white"/>
<path d="M168.406 31.1964L166.424 39.8318C166.188 40.8584 166.277 41.6928 166.69 42.3349C167.117 42.98 167.811 43.4129 168.773 43.6337C169.747 43.8574 170.561 43.7705 171.213 43.373C171.878 42.9785 172.328 42.2679 172.564 41.2412L174.546 32.6058L176.768 33.1159L174.795 41.7123C174.542 42.8169 174.086 43.6974 173.43 44.3538C172.773 45.0101 171.998 45.4343 171.106 45.6262C170.214 45.8181 169.28 45.8022 168.306 45.5785C167.331 45.3548 166.484 44.962 165.765 44.4002C165.059 43.8414 164.56 43.1249 164.268 42.2508C163.976 41.3767 163.957 40.3873 164.21 39.2827L166.184 30.6863L168.406 31.1964Z" fill="white"/>
<path d="M191.143 38.1189L185.849 50.9713L183.741 50.1029L189.035 37.2505L191.143 38.1189Z" fill="white"/>
<path d="M211.186 42.8825L195.025 59.2923L193.103 58.1419L209.247 41.7218L211.186 42.8825Z" fill="white"/>
<path d="M221.345 56.3794L215.423 62.9703C214.72 63.7539 214.393 64.5267 214.443 65.2888C214.503 66.0598 214.9 66.775 215.634 67.4343C216.378 68.1026 217.131 68.4211 217.895 68.3897C218.668 68.3672 219.406 67.9642 220.11 67.1806L226.031 60.5897L227.727 62.1134L221.833 68.6746C221.075 69.5176 220.25 70.0669 219.358 70.3224C218.465 70.5779 217.582 70.5733 216.709 70.3084C215.835 70.0436 215.027 69.5771 214.283 68.9088C213.539 68.2405 212.989 67.4863 212.632 66.6462C212.285 65.815 212.196 64.9464 212.365 64.0404C212.534 63.1344 212.997 62.2599 213.754 61.4168L219.649 54.8557L221.345 56.3794Z" fill="white"/>
<path d="M235.136 81.3625L232.072 88.9411L230.564 86.8722L232.788 81.3662L226.983 81.9585L225.488 79.9058L233.641 79.3098L236.709 71.7032L238.217 73.7721L235.973 79.3178L241.821 78.7181L243.317 80.7709L235.136 81.3625Z" fill="white"/>
<path d="M257.467 109.96C257.896 111.377 257.996 112.697 257.768 113.923C257.557 115.157 257.028 116.216 256.181 117.099C255.35 117.992 254.259 118.643 252.906 119.052C251.553 119.462 250.291 119.524 249.117 119.238C247.948 118.966 246.933 118.374 246.073 117.465C245.229 116.564 244.592 115.405 244.163 113.989L242.847 109.644L256.151 105.615L257.467 109.96ZM245.943 113.45C246.415 115.007 247.197 116.072 248.291 116.647C249.384 117.221 250.697 117.276 252.228 116.813C253.772 116.345 254.852 115.565 255.469 114.473C256.085 113.381 256.158 112.056 255.686 110.499L255.031 108.336L245.288 111.287L245.943 113.45Z" fill="white"/>
<path d="M255.023 141.189C254.611 141.224 254.237 141.229 253.9 141.204L253.185 132.815C252.314 132.956 251.638 133.341 251.156 133.971C250.675 134.601 250.47 135.341 250.542 136.191C250.647 137.413 251.232 138.233 252.297 138.651L252.506 141.102C251.468 140.856 250.586 140.322 249.861 139.501C249.15 138.692 248.739 137.643 248.629 136.354C248.54 135.304 248.692 134.341 249.086 133.465C249.494 132.6 250.103 131.893 250.912 131.342C251.736 130.804 252.713 130.486 253.842 130.39C254.971 130.294 255.98 130.436 256.869 130.815C257.772 131.206 258.491 131.794 259.026 132.578C259.563 133.376 259.877 134.312 259.968 135.388C260.057 136.425 259.909 137.367 259.527 138.216C259.144 139.065 258.56 139.75 257.775 140.272C257.003 140.793 256.085 141.098 255.023 141.189ZM255.538 138.756C256.374 138.672 257.019 138.316 257.474 137.688C257.93 137.061 258.12 136.315 258.047 135.452C257.98 134.668 257.67 134.018 257.118 133.503C256.579 132.987 255.88 132.712 255.021 132.678L255.538 138.756Z" fill="white"/>
<path d="M248.617 155.954C248.706 155.091 248.938 154.331 249.314 153.673C249.701 153.029 250.181 152.535 250.752 152.192C251.337 151.849 251.962 151.699 252.628 151.741L252.387 154.088C251.919 154.08 251.505 154.259 251.146 154.624C250.799 155.004 250.594 155.499 250.531 156.11C250.466 156.746 250.535 157.249 250.739 157.619C250.954 158.003 251.254 158.214 251.638 158.254C252.05 158.296 252.375 158.128 252.615 157.751C252.853 157.386 253.135 156.792 253.461 155.968C253.771 155.168 254.058 154.521 254.324 154.025C254.589 153.53 254.96 153.112 255.437 152.772C255.913 152.446 256.509 152.319 257.225 152.393C257.809 152.453 258.322 152.679 258.764 153.073C259.219 153.468 259.554 153.999 259.767 154.664C259.979 155.342 260.042 156.099 259.956 156.935C259.829 158.182 259.408 159.151 258.693 159.841C257.991 160.547 257.093 160.87 256 160.812L256.233 158.544C256.728 158.554 257.139 158.395 257.468 158.067C257.796 157.739 257.992 157.27 258.054 156.66C258.116 156.063 258.05 155.594 257.857 155.252C257.664 154.911 257.382 154.721 257.011 154.683C256.719 154.653 256.463 154.734 256.242 154.926C256.021 155.118 255.835 155.36 255.685 155.653C255.547 155.947 255.362 156.384 255.128 156.963C254.835 157.737 254.549 158.364 254.272 158.845C254.007 159.341 253.643 159.753 253.18 160.08C252.718 160.408 252.134 160.543 251.43 160.484C250.807 160.42 250.267 160.191 249.812 159.795C249.356 159.4 249.022 158.87 248.809 158.205C248.594 157.553 248.53 156.802 248.617 155.954Z" fill="white"/>
<path d="M258.306 174.104C258.409 173.704 258.631 173.403 258.971 173.201C259.312 172.999 259.683 172.95 260.083 173.052C260.483 173.155 260.784 173.376 260.986 173.717C261.188 174.058 261.238 174.428 261.135 174.829C261.036 175.216 260.816 175.511 260.475 175.713C260.134 175.915 259.764 175.964 259.363 175.862C258.963 175.759 258.662 175.537 258.46 175.197C258.258 174.856 258.207 174.492 258.306 174.104ZM256.614 174.827L245.939 172.093L246.504 169.884L257.18 172.618L256.614 174.827Z" fill="white"/>
<path d="M251.492 190.54C251.147 191.32 250.684 191.939 250.103 192.397C249.529 192.872 248.934 193.178 248.32 193.315L249.784 193.962L248.855 196.066L238.609 191.541C237.682 191.132 236.945 190.573 236.398 189.865C235.838 189.152 235.515 188.331 235.429 187.404C235.338 186.489 235.518 185.519 235.971 184.495C236.574 183.129 237.398 182.137 238.443 181.52C239.476 180.898 240.568 180.768 241.72 181.13L240.807 183.198C240.212 183.125 239.643 183.274 239.1 183.647C238.539 184.026 238.1 184.575 237.782 185.295C237.41 186.136 237.368 186.926 237.654 187.665C237.934 188.416 238.562 189.006 239.538 189.437L241.221 190.18C240.902 189.617 240.712 188.957 240.652 188.202C240.599 187.464 240.742 186.711 241.081 185.943C241.469 185.065 242.044 184.356 242.806 183.819C243.576 183.298 244.451 183 245.432 182.923C246.42 182.864 247.42 183.058 248.433 183.505C249.445 183.952 250.25 184.555 250.848 185.314C251.44 186.086 251.79 186.926 251.899 187.834C252.015 188.76 251.879 189.662 251.492 190.54ZM244.752 191.74C245.448 192.047 246.116 192.167 246.758 192.1C247.394 192.046 247.948 191.847 248.421 191.502C248.894 191.157 249.249 190.716 249.486 190.179C249.723 189.642 249.81 189.083 249.746 188.501C249.695 187.924 249.478 187.377 249.095 186.858C248.718 186.356 248.183 185.952 247.487 185.645C246.792 185.338 246.12 185.209 245.472 185.258C244.818 185.319 244.249 185.52 243.764 185.859C243.285 186.216 242.93 186.657 242.699 187.182C242.462 187.718 242.375 188.278 242.439 188.86C242.502 189.442 242.728 189.986 243.117 190.493C243.512 191.017 244.057 191.433 244.752 191.74Z" fill="white"/>
<path d="M239.357 212.28C238.854 212.985 238.258 213.511 237.57 213.855C236.875 214.211 236.127 214.341 235.327 214.245C234.527 214.15 233.72 213.812 232.906 213.231L227.614 209.457L228.926 207.617L233.941 211.194C234.745 211.767 235.501 212.003 236.211 211.903C236.932 211.811 237.54 211.418 238.035 210.723C238.53 210.028 238.708 209.32 238.568 208.598C238.431 207.894 237.961 207.256 237.158 206.683L232.142 203.107L233.466 201.25L242.438 207.648L241.115 209.505L240.089 208.773C240.241 209.34 240.254 209.931 240.127 210.545C239.993 211.17 239.736 211.748 239.357 212.28Z" fill="white"/>
<path d="M217.491 228.472C217.209 228.17 216.973 227.88 216.784 227.6L222.926 221.841C222.275 221.244 221.554 220.952 220.761 220.965C219.968 220.977 219.261 221.275 218.638 221.858C217.743 222.697 217.462 223.665 217.795 224.76L216 226.443C215.55 225.476 215.423 224.453 215.618 223.374C215.812 222.315 216.381 221.342 217.325 220.458C218.093 219.737 218.943 219.26 219.875 219.026C220.807 218.811 221.739 218.85 222.673 219.144C223.606 219.457 224.461 220.027 225.236 220.854C226.011 221.681 226.525 222.56 226.778 223.493C227.03 224.444 227.015 225.373 226.731 226.279C226.437 227.194 225.897 228.021 225.109 228.759C224.35 229.471 223.519 229.939 222.616 230.165C221.712 230.39 220.813 230.357 219.916 230.064C219.029 229.781 218.221 229.25 217.491 228.472ZM219.72 227.369C220.304 227.973 220.984 228.259 221.758 228.227C222.533 228.195 223.236 227.883 223.868 227.29C224.442 226.752 224.76 226.107 224.822 225.354C224.893 224.611 224.676 223.892 224.17 223.197L219.72 227.369Z" fill="white"/>
<path d="M208.672 239.654C208.702 240.305 208.573 240.909 208.285 241.466C207.994 242.041 207.53 242.538 206.896 242.956L205.597 240.985L206.082 240.666C206.828 240.175 207.271 239.611 207.411 238.976C207.54 238.348 207.296 237.566 206.68 236.631L203.489 231.788L205.393 230.533L211.456 239.735L209.552 240.99L208.672 239.654Z" fill="white"/>
</svg>
