<svg width="300" height="300" viewBox="0 0 300 300" fill="none" xmlns="http://www.w3.org/2000/svg">
<circle cx="150" cy="150" r="150" fill="#915EFF"/>
<path d="M296 150C296 230.634 230.634 296 150 296C69.3664 296 4 230.634 4 150C4 69.3664 69.3664 4 150 4C230.634 4 296 69.3664 296 150ZM12.76 150C12.76 225.796 74.2044 287.24 150 287.24C225.796 287.24 287.24 225.796 287.24 150C287.24 74.2044 225.796 12.76 150 12.76C74.2044 12.76 12.76 74.2044 12.76 150Z" fill="white"/>
<path d="M152.75 219.25C141.917 219.25 132.167 217.333 123.5 213.5C115 209.5 108.25 204.167 103.25 197.5C98.25 190.667 95.5833 183.083 95.25 174.75H124.75C125.25 180.583 128 185.5 133 189.5C138.167 193.333 144.583 195.25 152.25 195.25C160.25 195.25 166.417 193.75 170.75 190.75C175.25 187.583 177.5 183.583 177.5 178.75C177.5 173.583 175 169.75 170 167.25C165.167 164.75 157.417 162 146.75 159C136.417 156.167 128 153.417 121.5 150.75C115 148.083 109.333 144 104.5 138.5C99.8333 133 97.5 125.75 97.5 116.75C97.5 109.417 99.6667 102.75 104 96.75C108.333 90.5833 114.5 85.75 122.5 82.25C130.667 78.75 140 77 150.5 77C166.167 77 178.75 81 188.25 89C197.917 96.8333 203.083 107.583 203.75 121.25H175.25C174.75 115.083 172.25 110.167 167.75 106.5C163.25 102.833 157.167 101 149.5 101C142 101 136.25 102.417 132.25 105.25C128.25 108.083 126.25 111.833 126.25 116.5C126.25 120.167 127.583 123.25 130.25 125.75C132.917 128.25 136.167 130.25 140 131.75C143.833 133.083 149.5 134.833 157 137C167 139.667 175.167 142.417 181.5 145.25C188 147.917 193.583 151.917 198.25 157.25C202.917 162.583 205.333 169.667 205.5 178.5C205.5 186.333 203.333 193.333 199 199.5C194.667 205.667 188.5 210.5 180.5 214C172.667 217.5 163.417 219.25 152.75 219.25Z" fill="white"/>
<path d="M75.687 240.47L83.9619 229.301L85.7939 230.659L80.1265 238.308L89.2007 233.183L90.4702 234.124L88.2256 244.309L93.8931 236.66L95.725 238.017L87.4501 249.185L85.4735 247.721L88.0414 236.058L77.6475 241.923L75.687 240.47Z" fill="white"/>
<path d="M65.0966 227.674L68.1679 224.988L65.0083 221.375L66.4084 220.151L69.5681 223.764L72.775 220.96L69.2204 216.895L70.6205 215.67L75.676 221.452L65.1972 230.615L60.1417 224.833L61.5419 223.609L65.0966 227.674Z" fill="white"/>
<path d="M60.6133 201.083L57.4417 206.659L58.3234 208.159L63.1167 205.342L64.272 207.307L52.2889 214.351L49.8565 210.213C49.316 209.293 49.0208 208.423 48.9711 207.602C48.9146 206.769 49.0652 206.038 49.423 205.41C49.7741 204.771 50.283 204.255 50.9497 203.863C51.7313 203.404 52.5791 203.215 53.4931 203.296C54.3888 203.373 55.2286 203.815 56.0125 204.623L59.235 198.738L60.6133 201.083ZM56.7544 209.082L55.4774 206.909C55.045 206.173 54.5367 205.73 53.9527 205.578C53.3619 205.415 52.7561 205.516 52.1354 205.881C51.5147 206.246 51.1401 206.713 51.0114 207.284C50.8713 207.861 51.0208 208.523 51.46 209.27L52.737 211.443L56.7544 209.082Z" fill="white"/>
<path d="M51.0065 178.451L51.7286 180.613L44.0559 190.408L53.9014 187.12L54.6236 189.283L41.4203 193.692L40.6981 191.529L48.3519 181.741L38.5253 185.022L37.8032 182.86L51.0065 178.451Z" fill="white"/>
<path d="M33.2128 150.241C33.2407 148.761 33.5518 147.473 34.146 146.378C34.727 145.268 35.5565 144.424 36.6343 143.844C37.6991 143.251 38.938 142.968 40.3511 142.994C41.7641 143.021 42.9848 143.351 44.013 143.984C45.0415 144.603 45.8251 145.478 46.3638 146.609C46.8894 147.726 47.1383 149.024 47.1103 150.504L47.0244 155.043L33.1269 154.78L33.2128 150.241ZM45.2506 150.468C45.2814 148.842 44.865 147.587 44.0016 146.704C43.1381 145.821 41.9065 145.364 40.3068 145.334C38.6938 145.303 37.4258 145.713 36.5029 146.562C35.58 147.412 35.1032 148.649 35.0724 150.276L35.0297 152.535L45.2079 152.728L45.2506 150.468Z" fill="white"/>
<path d="M45.1532 121.281C45.5558 121.375 45.9134 121.485 46.2261 121.612L44.3227 129.815C45.195 129.949 45.9572 129.79 46.6093 129.339C47.2615 128.888 47.684 128.247 47.8769 127.416C48.1542 126.221 47.8501 125.261 46.9645 124.535L47.5206 122.139C48.4324 122.693 49.107 123.472 49.5445 124.477C49.972 125.466 50.0396 126.59 49.7472 127.85C49.5091 128.876 49.0678 129.745 48.4233 130.458C47.7689 131.155 46.9718 131.641 46.032 131.915C45.0823 132.174 44.0554 132.175 42.9515 131.919C41.8475 131.663 40.9311 131.217 40.2023 130.583C39.4636 129.932 38.9604 129.152 38.6926 128.241C38.4279 127.317 38.4177 126.329 38.6618 125.277C38.8969 124.264 39.3272 123.413 39.9526 122.723C40.5781 122.033 41.3447 121.561 42.2525 121.306C43.1472 121.049 44.1141 121.04 45.1532 121.281ZM43.9138 123.437C43.0925 123.26 42.3688 123.4 41.7426 123.857C41.1165 124.314 40.7054 124.965 40.5095 125.809C40.3317 126.575 40.4262 127.288 40.7932 127.948C41.1472 128.605 41.7277 129.082 42.5348 129.379L43.9138 123.437Z" fill="white"/>
<path d="M53.8711 108.054L46.948 101.539L47.9362 99.3297L56.2805 107.664L55.1698 110.146L43.4035 109.462L44.3999 107.235L53.8711 108.054Z" fill="white"/>
<path d="M63.6833 83.9204C64.0213 84.1583 64.3113 84.395 64.5532 84.6305L59.7072 91.5162C60.4652 91.9681 61.2311 92.1077 62.0049 91.9349C62.7787 91.7621 63.4112 91.3267 63.9023 90.6289C64.6083 89.6257 64.6873 88.6216 64.1393 87.6163L65.5551 85.6046C66.1919 86.4604 66.5243 87.4361 66.5521 88.5318C66.5767 89.6089 66.2168 90.6762 65.4724 91.7339C64.8662 92.5953 64.1306 93.2352 63.2655 93.6535C62.3972 94.0533 61.476 94.2039 60.5019 94.1053C59.5246 93.9882 58.5725 93.6035 57.6457 92.9512C56.7189 92.2989 56.037 91.5419 55.6 90.68C55.1599 89.7996 54.9869 88.8871 55.081 87.9425C55.1828 86.987 55.5445 86.0676 56.1661 85.1844C56.7646 84.3339 57.4833 83.7065 58.3221 83.3023C59.161 82.8981 60.0488 82.7485 60.9858 82.8535C61.9118 82.9509 62.811 83.3065 63.6833 83.9204ZM61.7247 85.4524C61.0301 84.9798 60.3068 84.8377 59.5548 85.0258C58.8028 85.214 58.1775 85.6624 57.6787 86.3712C57.2259 87.0145 57.0456 87.7109 57.1376 88.4605C57.2188 89.2024 57.5776 89.8625 58.214 90.4409L61.7247 85.4524Z" fill="white"/>
<path d="M66.1154 67.5119L76.7112 77.8448L75.1194 79.4771L64.5236 69.1442L66.1154 67.5119Z" fill="white"/>
<path d="M88.101 68.0711C87.2658 68.6908 86.3719 69.0636 85.4192 69.1893C84.4586 69.3044 83.5313 69.1623 82.6373 68.763C81.7354 68.3531 80.9468 67.693 80.2715 66.7829C79.6041 65.8834 79.2103 64.9387 79.09 63.9488C78.9698 62.9588 79.1133 62.0222 79.5205 61.1389C79.9277 60.2557 80.5542 59.5002 81.4001 58.8725C82.246 58.2449 83.1507 57.8642 84.114 57.7305C85.0774 57.5968 86.0154 57.7309 86.928 58.1329C87.8406 58.535 88.6306 59.1857 89.298 60.0851C89.9654 60.9846 90.3539 61.9332 90.4634 62.9312C90.573 63.9291 90.4174 64.8829 89.9967 65.7928C89.5788 66.684 88.9469 67.4434 88.101 68.0711ZM86.9211 66.481C87.3923 66.1314 87.7479 65.6932 87.9879 65.1665C88.2386 64.6318 88.3257 64.0442 88.249 63.4038C88.1722 62.7634 87.8955 62.122 87.4188 61.4795C86.9421 60.837 86.4178 60.3877 85.8457 60.1314C85.2658 59.8644 84.6889 59.7695 84.1152 59.8465C83.5414 59.9236 83.019 60.1369 82.5479 60.4865C82.0767 60.8361 81.7211 61.2742 81.4811 61.801C81.2518 62.3198 81.1862 62.8915 81.2843 63.516C81.3745 64.1298 81.6579 64.758 82.1346 65.4004C82.8417 66.3534 83.6309 66.9134 84.502 67.0806C85.3759 67.2291 86.1823 67.0292 86.9211 66.481Z" fill="white"/>
<path d="M99.1631 49.8078C99.3004 49.1854 99.5984 48.5766 100.057 47.9814C100.516 47.3862 101.126 46.9117 101.888 46.5579C102.758 46.1536 103.652 46.0034 104.567 46.1074C105.489 46.1938 106.336 46.5284 107.106 47.1114C107.877 47.6944 108.495 48.4878 108.961 49.4915C109.427 50.4953 109.64 51.4917 109.6 52.4807C109.554 53.4577 109.272 54.3384 108.754 55.1228C108.243 55.8895 107.552 56.475 106.681 56.8793C105.919 57.2331 105.172 57.3964 104.439 57.3693C103.7 57.33 103.037 57.1677 102.448 56.8822L105.329 63.0859L103.261 64.0462L96.4129 49.2988L98.4808 48.3385L99.1631 49.8078ZM106.857 50.4687C106.537 49.7794 106.117 49.2542 105.596 48.8932C105.082 48.5144 104.531 48.3076 103.941 48.2727C103.358 48.22 102.8 48.3172 102.268 48.5643C101.748 48.8058 101.314 49.1691 100.966 49.6541C100.63 50.1336 100.435 50.6946 100.381 51.3373C100.338 51.9744 100.477 52.6376 100.797 53.3269C101.117 54.0162 101.537 54.5563 102.057 54.9471C102.583 55.3202 103.138 55.5331 103.721 55.5858C104.316 55.6328 104.873 55.5356 105.393 55.2941C105.925 55.047 106.36 54.6837 106.696 54.2043C107.038 53.7071 107.228 53.134 107.264 52.4848C107.313 51.83 107.177 51.158 106.857 50.4687Z" fill="white"/>
<path d="M129.485 43.1635C129.579 43.5658 129.639 43.9353 129.663 44.272L121.467 46.2008C121.734 47.0422 122.214 47.6552 122.907 48.04C123.6 48.4247 124.362 48.5194 125.193 48.3239C126.387 48.0429 127.113 47.3447 127.371 46.2292L129.765 45.6657C129.673 46.7284 129.273 47.6786 128.567 48.5161C127.87 49.3377 126.892 49.8966 125.633 50.1928C124.607 50.4341 123.632 50.4239 122.708 50.162C121.793 49.8842 121.004 49.3849 120.342 48.6642C119.689 47.9275 119.233 47.0075 118.973 45.9043C118.713 44.8011 118.707 43.7823 118.952 42.8478C119.208 41.8973 119.685 41.1002 120.383 40.4566C121.093 39.8099 121.974 39.3629 123.026 39.1155C124.038 38.8772 124.992 38.8856 125.888 39.1405C126.783 39.3955 127.546 39.8734 128.177 40.5742C128.804 41.2621 129.24 42.1252 129.485 43.1635ZM127.003 43.0078C126.798 42.1932 126.351 41.6065 125.664 41.2477C124.977 40.8889 124.212 40.8088 123.368 41.0073C122.602 41.1875 122.005 41.5884 121.576 42.2098C121.144 42.8183 120.974 43.5501 121.065 44.4052L127.003 43.0078Z" fill="white"/>
<path d="M142.706 37.8694C143.004 37.2903 143.417 36.8311 143.945 36.4919C144.484 36.1386 145.133 35.939 145.892 35.893L146.035 38.2487L145.456 38.2838C144.564 38.3378 143.899 38.6052 143.461 39.086C143.036 39.5659 142.857 40.3648 142.925 41.4828L143.276 47.2721L141 47.4101L140.333 36.4103L142.609 36.2723L142.706 37.8694Z" fill="white"/>
<path d="M156.619 47.3811C156.207 47.3538 155.87 47.1912 155.609 46.8933C155.349 46.5955 155.232 46.2403 155.259 45.8279C155.286 45.4155 155.449 45.0788 155.747 44.8179C156.045 44.557 156.4 44.4401 156.812 44.4674C157.211 44.4938 157.541 44.656 157.802 44.9538C158.063 45.2517 158.18 45.6068 158.153 46.0193C158.125 46.4317 157.963 46.7684 157.665 47.0293C157.367 47.2902 157.019 47.4075 156.619 47.3811Z" fill="white"/>
<path d="M172.406 35.1964L170.424 43.8318C170.188 44.8584 170.277 45.6928 170.69 46.3349C171.117 46.98 171.811 47.4129 172.773 47.6337C173.747 47.8574 174.561 47.7705 175.213 47.373C175.878 46.9785 176.328 46.2679 176.564 45.2412L178.546 36.6058L180.768 37.1159L178.795 45.7123C178.542 46.8169 178.086 47.6974 177.43 48.3538C176.773 49.0101 175.998 49.4343 175.106 49.6262C174.214 49.8181 173.28 49.8022 172.306 49.5785C171.331 49.3548 170.484 48.962 169.765 48.4002C169.059 47.8414 168.56 47.1249 168.268 46.2508C167.976 45.3767 167.957 44.3873 168.21 43.2827L170.184 34.6863L172.406 35.1964Z" fill="white"/>
<path d="M195.143 42.1189L189.849 54.9713L187.741 54.1029L193.035 41.2505L195.143 42.1189Z" fill="white"/>
<path d="M215.186 46.8825L199.025 63.2923L197.103 62.1419L213.247 45.7218L215.186 46.8825Z" fill="white"/>
<path d="M225.345 60.3794L219.423 66.9703C218.72 67.7539 218.393 68.5267 218.443 69.2888C218.503 70.0598 218.9 70.775 219.634 71.4343C220.378 72.1026 221.131 72.4211 221.895 72.3897C222.668 72.3672 223.406 71.9642 224.11 71.1806L230.031 64.5897L231.727 66.1134L225.833 72.6746C225.075 73.5176 224.25 74.0669 223.358 74.3224C222.465 74.5779 221.582 74.5733 220.709 74.3084C219.835 74.0436 219.027 73.5771 218.283 72.9088C217.539 72.2405 216.989 71.4863 216.632 70.6462C216.285 69.815 216.196 68.9464 216.365 68.0404C216.534 67.1344 216.997 66.2599 217.754 65.4168L223.649 58.8557L225.345 60.3794Z" fill="white"/>
<path d="M239.136 85.3625L236.072 92.9411L234.564 90.8722L236.788 85.3662L230.983 85.9585L229.488 83.9058L237.641 83.3098L240.709 75.7032L242.217 77.7721L239.973 83.3178L245.821 82.7181L247.317 84.7709L239.136 85.3625Z" fill="white"/>
<path d="M261.467 113.96C261.896 115.377 261.996 116.697 261.768 117.923C261.557 119.157 261.028 120.216 260.181 121.099C259.35 121.992 258.259 122.643 256.906 123.052C255.553 123.462 254.291 123.524 253.117 123.238C251.948 122.966 250.933 122.374 250.073 121.465C249.229 120.564 248.592 119.405 248.163 117.989L246.847 113.644L260.151 109.615L261.467 113.96ZM249.943 117.45C250.415 119.007 251.197 120.072 252.291 120.647C253.384 121.221 254.697 121.276 256.228 120.813C257.772 120.345 258.852 119.565 259.469 118.473C260.085 117.381 260.158 116.056 259.686 114.499L259.031 112.336L249.288 115.287L249.943 117.45Z" fill="white"/>
<path d="M259.023 145.189C258.611 145.224 258.237 145.229 257.9 145.204L257.185 136.815C256.314 136.956 255.638 137.341 255.156 137.971C254.675 138.601 254.47 139.341 254.542 140.191C254.647 141.413 255.232 142.233 256.297 142.651L256.506 145.102C255.468 144.856 254.586 144.322 253.861 143.501C253.15 142.692 252.739 141.643 252.629 140.354C252.54 139.304 252.692 138.341 253.086 137.465C253.494 136.6 254.103 135.893 254.912 135.342C255.736 134.804 256.713 134.486 257.842 134.39C258.971 134.294 259.98 134.436 260.869 134.815C261.772 135.206 262.491 135.794 263.026 136.578C263.563 137.376 263.877 138.312 263.968 139.388C264.057 140.425 263.909 141.367 263.527 142.216C263.144 143.065 262.56 143.75 261.775 144.272C261.003 144.793 260.085 145.098 259.023 145.189ZM259.538 142.756C260.374 142.672 261.019 142.316 261.474 141.688C261.93 141.061 262.12 140.315 262.047 139.452C261.98 138.668 261.67 138.018 261.118 137.503C260.579 136.987 259.88 136.712 259.021 136.678L259.538 142.756Z" fill="white"/>
<path d="M252.617 159.954C252.706 159.091 252.938 158.331 253.314 157.673C253.701 157.029 254.181 156.535 254.752 156.192C255.337 155.849 255.962 155.699 256.628 155.741L256.387 158.088C255.919 158.08 255.505 158.259 255.146 158.624C254.799 159.004 254.594 159.499 254.531 160.11C254.466 160.746 254.535 161.249 254.739 161.619C254.954 162.003 255.254 162.214 255.638 162.254C256.05 162.296 256.375 162.128 256.615 161.751C256.853 161.386 257.135 160.792 257.461 159.968C257.771 159.168 258.058 158.521 258.324 158.025C258.589 157.53 258.96 157.112 259.437 156.772C259.913 156.446 260.509 156.319 261.225 156.393C261.809 156.453 262.322 156.679 262.764 157.073C263.219 157.468 263.554 157.999 263.767 158.664C263.979 159.342 264.042 160.099 263.956 160.935C263.829 162.182 263.408 163.151 262.693 163.841C261.991 164.547 261.093 164.87 260 164.812L260.233 162.544C260.728 162.554 261.139 162.395 261.468 162.067C261.796 161.739 261.992 161.27 262.054 160.66C262.116 160.063 262.05 159.594 261.857 159.252C261.664 158.911 261.382 158.721 261.011 158.683C260.719 158.653 260.463 158.734 260.242 158.926C260.021 159.118 259.835 159.36 259.685 159.653C259.547 159.947 259.362 160.384 259.128 160.963C258.835 161.737 258.549 162.364 258.272 162.845C258.007 163.341 257.643 163.753 257.18 164.08C256.718 164.408 256.134 164.543 255.43 164.484C254.807 164.42 254.267 164.191 253.812 163.795C253.356 163.4 253.022 162.87 252.809 162.205C252.594 161.553 252.53 160.802 252.617 159.954Z" fill="white"/>
<path d="M262.306 178.104C262.409 177.704 262.631 177.403 262.971 177.201C263.312 176.999 263.683 176.95 264.083 177.052C264.483 177.155 264.784 177.376 264.986 177.717C265.188 178.058 265.238 178.428 265.135 178.829C265.036 179.216 264.816 179.511 264.475 179.713C264.134 179.915 263.764 179.964 263.363 179.862C262.963 179.759 262.662 179.537 262.46 179.197C262.258 178.856 262.207 178.492 262.306 178.104ZM260.614 178.827L249.939 176.093L250.504 173.884L261.18 176.618L260.614 178.827Z" fill="white"/>
<path d="M255.492 194.54C255.147 195.32 254.684 195.939 254.103 196.397C253.529 196.872 252.934 197.178 252.32 197.315L253.784 197.962L252.855 200.066L242.609 195.541C241.682 195.132 240.945 194.573 240.398 193.865C239.838 193.152 239.515 192.331 239.429 191.404C239.338 190.489 239.518 189.519 239.971 188.495C240.574 187.129 241.398 186.137 242.443 185.52C243.476 184.898 244.568 184.768 245.72 185.13L244.807 187.198C244.212 187.125 243.643 187.274 243.1 187.647C242.539 188.026 242.1 188.575 241.782 189.295C241.41 190.136 241.368 190.926 241.654 191.665C241.934 192.416 242.562 193.006 243.538 193.437L245.221 194.18C244.902 193.617 244.712 192.957 244.652 192.202C244.599 191.464 244.742 190.711 245.081 189.943C245.469 189.065 246.044 188.356 246.806 187.819C247.576 187.298 248.451 187 249.432 186.923C250.42 186.864 251.42 187.058 252.433 187.505C253.445 187.952 254.25 188.555 254.848 189.314C255.44 190.086 255.79 190.926 255.899 191.834C256.015 192.76 255.879 193.662 255.492 194.54ZM248.752 195.74C249.448 196.047 250.116 196.167 250.758 196.1C251.394 196.046 251.948 195.847 252.421 195.502C252.894 195.157 253.249 194.716 253.486 194.179C253.723 193.642 253.81 193.083 253.746 192.501C253.695 191.924 253.478 191.377 253.095 190.858C252.718 190.356 252.183 189.952 251.487 189.645C250.792 189.338 250.12 189.209 249.472 189.258C248.818 189.319 248.249 189.52 247.764 189.859C247.285 190.216 246.93 190.657 246.699 191.182C246.462 191.718 246.375 192.278 246.439 192.86C246.502 193.442 246.728 193.986 247.117 194.493C247.512 195.017 248.057 195.433 248.752 195.74Z" fill="white"/>
<path d="M243.357 216.28C242.854 216.985 242.258 217.511 241.57 217.855C240.875 218.211 240.127 218.341 239.327 218.245C238.527 218.15 237.72 217.812 236.906 217.231L231.614 213.457L232.926 211.617L237.941 215.194C238.745 215.767 239.501 216.003 240.211 215.903C240.932 215.811 241.54 215.418 242.035 214.723C242.53 214.028 242.708 213.32 242.568 212.598C242.431 211.894 241.961 211.256 241.158 210.683L236.142 207.107L237.466 205.25L246.438 211.648L245.115 213.505L244.089 212.773C244.241 213.34 244.254 213.931 244.127 214.545C243.993 215.17 243.736 215.748 243.357 216.28Z" fill="white"/>
<path d="M221.491 232.472C221.209 232.17 220.973 231.88 220.784 231.6L226.926 225.841C226.275 225.244 225.554 224.952 224.761 224.965C223.968 224.977 223.261 225.275 222.638 225.858C221.743 226.697 221.462 227.665 221.795 228.76L220 230.443C219.55 229.476 219.423 228.453 219.618 227.374C219.812 226.315 220.381 225.342 221.325 224.458C222.093 223.737 222.943 223.26 223.875 223.026C224.807 222.811 225.739 222.85 226.673 223.144C227.606 223.457 228.461 224.027 229.236 224.854C230.011 225.681 230.525 226.56 230.778 227.493C231.03 228.444 231.015 229.373 230.731 230.279C230.437 231.194 229.897 232.021 229.109 232.759C228.35 233.471 227.519 233.939 226.616 234.165C225.712 234.39 224.813 234.357 223.916 234.064C223.029 233.781 222.221 233.25 221.491 232.472ZM223.72 231.369C224.304 231.973 224.984 232.259 225.758 232.227C226.533 232.195 227.236 231.883 227.868 231.29C228.442 230.752 228.76 230.107 228.822 229.354C228.893 228.611 228.676 227.892 228.17 227.197L223.72 231.369Z" fill="white"/>
<path d="M212.672 243.654C212.702 244.305 212.573 244.909 212.285 245.466C211.994 246.041 211.53 246.538 210.896 246.956L209.597 244.985L210.082 244.666C210.828 244.175 211.271 243.611 211.411 242.976C211.54 242.348 211.296 241.566 210.68 240.631L207.489 235.788L209.393 234.533L215.456 243.735L213.552 244.99L212.672 243.654Z" fill="white"/>
</svg>
